<svg class="i-plane" xmlns="http://www.w3.org/2000/svg" viewBox="0 0 14 15">
                  <path class="i-plane__content" d="M13.72 11.08c.07 0 .14 0 .2-.03.05-.04.08-.1.08-.17V9.85c0-.2-.1-.34-.26-.45L8.42 6.24c-.17-.1-.25-.25-.25-.46V2.23c0-.2-.04-.37-.12-.54-.2-.55-.5-.84-.88-.9C7.1.78 7.07.77 7 .77c-.06 0-.12 0-.2.03-.02 0-.04 0-.07.02-.03 0-.06.02-.1.04-.13.04-.26.12-.37.26-.1.13-.2.25-.26.37l-.08.2c-.06.16-.1.34-.1.53v3.55c0 .2-.07.36-.24.46L.26 9.4c-.17.1-.26.26-.26.45v1.03c0 .07.03.13.1.17.04.03.1.04.18.03l5.27-1.7c.07-.05.14-.05.2 0 .05.05.08.1.08.2v2.75c0 .2-.07.37-.22.48l-.7.52c-.16.12-.23.28-.23.5v.67c0 .07.03.12.08.16.06.04.13.05.2.03l1.77-.52c.2-.06.37-.06.56 0l1.77.5c.07.03.14.02.2-.02.05-.04.08-.1.08-.17v-.7c0-.2-.07-.36-.22-.48l-.7-.5c-.16-.12-.23-.28-.23-.5V9.58c0-.1.03-.16.08-.2.06-.04.13-.04.2 0l5.27 1.7z"></path>
                </svg>