<svg class="i-arrival" xmlns="http://www.w3.org/2000/svg" viewBox="0 0 12 13"><path class="i-arrival__content" d="M11.077 1.925c.649 0 .923.278.923.963v9.135c0 .676-.278.977-.923.977H.923C.218 13 0 12.731 0 12.023V2.888c0-.668.274-.963.923-.963h.923v-.722C1.846.623 2.268 0 3 0h.462c.592 0 1.154.511 1.154 1.203v.722h2.769v-.722C7.385.437 7.798 0 8.539 0H9c.751 0 1.154.541 1.154 1.203v.722h.923zm-2.77-.722V3.37c0 .191.027.241.232.241h.46c.134 0 .232-.034.232-.24V1.202c0-.17-.042-.24-.231-.24h-.461c-.166 0-.231.12-.231.24zm-5.607 0V3.37c0 .191.026.241.23.241h.462c.133 0 .23-.034.23-.24V1.202c0-.17-.04-.24-.23-.24h-.461c-.166 0-.231.12-.231.24zm.8 8.118V7.68h2.935l.002-.853c0-.088.032-.165.1-.23A.34.34 0 0 1 6.78 6.5a.34.34 0 0 1 .242.097l1.377 1.605a.307.307 0 0 1 .102.23.307.307 0 0 1-.102.23l-1.377 1.74a.339.339 0 0 1-.242.098.34.34 0 0 1-.242-.097.307.307 0 0 1-.102-.23V9.32H3.5zm7.5 2.68V4.813H1v7.188h10z"></path></svg>