<svg class="i-anchor" xmlns="http://www.w3.org/2000/svg" viewBox="0 0 14 14">
              <path class="i-anchor__content" d="M13.93 9.07a.227.227 0 0 0-.18-.07H11c-.1 0-.2.05-.23.16-.05.1-.03.2.05.27l.78.78c-.35.5-.84.88-1.48 1.2-.64.34-1.34.55-2.12.65V7h1.5c.14 0 .25-.05.35-.15.1-.1.15-.2.15-.35v-1a.47.47 0 0 0-.15-.35c-.1-.1-.2-.15-.35-.15H8V3.73c.3-.18.54-.42.73-.73.18-.3.27-.64.27-1C9 1.45 8.8.98 8.4.6 8.03.2 7.56 0 7 0c-.55 0-1.02.2-1.4.6C5.2.97 5 1.44 5 2c0 .36.1.7.27 1 .2.3.43.55.73.73V5H4.5a.47.47 0 0 0-.35.15c-.1.1-.15.2-.15.35v1c0 .14.05.25.15.35.1.1.2.15.35.15H6v5.05c-.78-.1-1.48-.3-2.12-.64-.64-.32-1.13-.72-1.48-1.2l.78-.77c.08-.08.1-.17.05-.27A.234.234 0 0 0 3 9H.25a.241.241 0 0 0-.25.25V12c0 .1.05.2.16.23l.1.02c.06 0 .12-.02.17-.07l.73-.73c.62.75 1.45 1.34 2.48 1.77 1.04.44 2.16.66 3.36.66 1.2 0 2.32-.22 3.36-.66 1.03-.43 1.86-1.02 2.48-1.77l.73.73c.05.05.1.07.18.07l.1-.02c.1-.04.15-.12.15-.23V9.25c0-.07-.02-.13-.07-.18zM7.35 2.35c-.1.1-.2.15-.35.15a.47.47 0 0 1-.35-.15c-.1-.1-.15-.2-.15-.35 0-.14.05-.25.15-.35.1-.1.2-.15.35-.15.14 0 .25.05.35.15.1.1.15.2.15.35 0 .14-.05.25-.15.35z"></path>
              </svg>