<svg class="i-train" xmlns="http://www.w3.org/2000/svg" viewBox="0 0 14 18">
              <path class="i-train__content" d="M13.12 16.35l-2.45-4.46c.7-.12 1.2-.74 1.2-1.44V3.88A3.16 3.16 0 0 0 8.7.7H4.5C2.76.7 1.3 2.12 1.3 3.92v6.54c0 .73.5 1.32 1.2 1.43L.1 16.34c-.2.36-.1.8.28 1 .1.06.22.06.33.06.27 0 .52-.14.63-.36l.22-.36h10.1l.23.36c.14.26.36.37.62.37.1 0 .22-.03.33-.06.37-.2.48-.63.3-1zm-3.44-3.3H3.53l.62-1.13h4.9l.63 1.14zm-.1-2.44c-.6 0-1.07-.47-1.07-1.05 0-.6.5-1.06 1.07-1.06.6 0 1.06.46 1.06 1.05 0 .55-.47 1.06-1.06 1.06zm-7-6.28c0-1.13.9-2.05 2-2.05h4c1.1 0 2.05.92 2.05 2.05v1.75c0 .4-.33.7-.73.7H3.3c-.4 0-.7-.33-.7-.7V4.32zm1.06 4.13c.58 0 1.06.48 1.06 1.06 0 .6-.48 1.07-1.06 1.07-.6 0-1.06-.47-1.06-1.06 0-.57.47-1.05 1.06-1.05zm-1.5 7.13l.8-1.43h7.33l.8 1.43H2.14z"></path>
              </svg>