<svg class="i-location" xmlns="http://www.w3.org/2000/svg" viewBox="0 0 9 12"><path class="i-location__content" fill-rule="evenodd" d="M6.76.617a4.55 4.55 0 0 1 1.637 1.659C8.8 2.97 9 3.719 9 4.522c0 .803-.243 1.69-.727 2.662C7.217 9.57 4.55 12 4.55 12c-.067-.059-2.637-2.398-3.923-4.855C.21 6.24 0 5.384 0 4.581c0-.809.2-1.565.602-2.266A4.632 4.632 0 0 1 2.245.632 4.267 4.267 0 0 1 4.5 0c.816 0 1.57.205 2.26.617zM4.49 6.842c.71 0 1.316-.247 1.817-.74.5-.492.751-1.087.751-1.786 0-.698-.25-1.292-.75-1.78A2.508 2.508 0 0 0 4.49 1.8a2.48 2.48 0 0 0-1.812.74 2.41 2.41 0 0 0-.747 1.776c0 .698.25 1.294.752 1.786.5.493 1.103.74 1.807.74v-.001z"></path></svg>